<svg width="25" height="25" viewBox="0 0 25 25" fill="none" xmlns="http://www.w3.org/2000/svg">
<mask id="mask0_3047_52670" style="mask-type:alpha" maskUnits="userSpaceOnUse" x="0" y="0" width="25" height="25">
<rect x="0.5" y="0.5" width="24" height="24" fill="#D9D9D9"/>
</mask>
<g mask="url(#mask0_3047_52670)">
<path d="M17.2752 20.075C17.0919 20.1916 16.9085 20.3 16.7252 20.4C16.5419 20.5 16.3502 20.5916 16.1502 20.675C15.9002 20.7916 15.646 20.7916 15.3877 20.675C15.1294 20.5583 14.9502 20.3666 14.8502 20.1C14.7502 19.85 14.7627 19.6041 14.8877 19.3625C15.0127 19.1208 15.2002 18.9416 15.4502 18.825C15.5669 18.775 15.6752 18.7208 15.7752 18.6625C15.8752 18.6041 15.9752 18.5416 16.0752 18.475L12.5002 15.3V18.075C12.5002 18.525 12.296 18.8375 11.8877 19.0125C11.4794 19.1875 11.1169 19.1166 10.8002 18.8L7.5002 15.5H4.5002C4.21686 15.5 3.97936 15.4041 3.7877 15.2125C3.59603 15.0208 3.5002 14.7833 3.5002 14.5V10.5C3.5002 10.2166 3.59603 9.97914 3.7877 9.78748C3.97936 9.59581 4.21686 9.49998 4.5002 9.49998H6.7002L2.6002 5.39998C2.41686 5.21664 2.3252 4.98331 2.3252 4.69998C2.3252 4.41664 2.41686 4.18331 2.6002 3.99998C2.78353 3.81664 3.01686 3.72498 3.3002 3.72498C3.58353 3.72498 3.81686 3.81664 4.0002 3.99998L21.0002 21C21.1835 21.1833 21.2752 21.4166 21.2752 21.7C21.2752 21.9833 21.1835 22.2166 21.0002 22.4C20.8169 22.5833 20.5835 22.675 20.3002 22.675C20.0169 22.675 19.7835 22.5833 19.6002 22.4L17.2752 20.075ZM20.1002 17.3L18.6502 15.85C18.9335 15.3333 19.146 14.7916 19.2877 14.225C19.4294 13.6583 19.5002 13.075 19.5002 12.475C19.5002 11.0916 19.1335 9.82914 18.4002 8.68748C17.6669 7.54581 16.6835 6.69164 15.4502 6.12498C15.2002 6.00831 15.0169 5.82914 14.9002 5.58748C14.7835 5.34581 14.7669 5.09998 14.8502 4.84998C14.9502 4.58331 15.1294 4.39164 15.3877 4.27498C15.646 4.15831 15.9085 4.15831 16.1752 4.27498C17.7919 4.99164 19.0835 6.08331 20.0502 7.54998C21.0169 9.01664 21.5002 10.6583 21.5002 12.475C21.5002 13.3583 21.3794 14.2083 21.1377 15.025C20.896 15.8416 20.5502 16.6 20.1002 17.3ZM16.7502 13.95L14.5002 11.7V9.34998C14.5002 9.14998 14.5877 9.00414 14.7627 8.91248C14.9377 8.82081 15.1085 8.82498 15.2752 8.92498C15.8252 9.27498 16.2502 9.79998 16.5502 10.5C16.8502 11.2 17.0002 11.8666 17.0002 12.5C17.0002 12.75 16.9794 12.9958 16.9377 13.2375C16.896 13.4791 16.8335 13.7166 16.7502 13.95ZM12.5002 9.69998L9.9002 7.09998L10.8002 6.19998C11.1169 5.88331 11.4794 5.81248 11.8877 5.98748C12.296 6.16248 12.5002 6.47498 12.5002 6.92498V9.69998ZM10.5002 15.65V13.3L8.7002 11.5H5.5002V13.5H8.3502L10.5002 15.65Z" fill="white"/>
</g>
</svg>
