<svg width="25" height="25" viewBox="0 0 25 25" fill="none" xmlns="http://www.w3.org/2000/svg">
<mask id="mask0_3047_52694" style="mask-type:alpha" maskUnits="userSpaceOnUse" x="0" y="0" width="25" height="25">
<rect x="0.5" y="0.5" width="24" height="24" fill="#D9D9D9"/>
</mask>
<g mask="url(#mask0_3047_52694)">
<path d="M19.5 12.475C19.5 11.0917 19.1333 9.82917 18.4 8.6875C17.6667 7.54583 16.6833 6.69167 15.45 6.125C15.2 6.00833 15.0167 5.82917 14.9 5.5875C14.7833 5.34583 14.7667 5.1 14.85 4.85C14.95 4.58333 15.1292 4.39167 15.3875 4.275C15.6458 4.15833 15.9083 4.15833 16.175 4.275C17.7917 4.99167 19.0833 6.0875 20.05 7.5625C21.0167 9.0375 21.5 10.675 21.5 12.475C21.5 14.275 21.0167 15.9125 20.05 17.3875C19.0833 18.8625 17.7917 19.9583 16.175 20.675C15.9083 20.7917 15.6458 20.7917 15.3875 20.675C15.1292 20.5583 14.95 20.3667 14.85 20.1C14.7667 19.85 14.7833 19.6042 14.9 19.3625C15.0167 19.1208 15.2 18.9417 15.45 18.825C16.6833 18.2583 17.6667 17.4042 18.4 16.2625C19.1333 15.1208 19.5 13.8583 19.5 12.475ZM7.5 15.5H4.5C4.21667 15.5 3.97917 15.4042 3.7875 15.2125C3.59583 15.0208 3.5 14.7833 3.5 14.5V10.5C3.5 10.2167 3.59583 9.97917 3.7875 9.7875C3.97917 9.59583 4.21667 9.5 4.5 9.5H7.5L10.8 6.2C11.1167 5.88333 11.4792 5.8125 11.8875 5.9875C12.2958 6.1625 12.5 6.475 12.5 6.925V18.075C12.5 18.525 12.2958 18.8375 11.8875 19.0125C11.4792 19.1875 11.1167 19.1167 10.8 18.8L7.5 15.5ZM17 12.5C17 13.2 16.8417 13.8625 16.525 14.4875C16.2083 15.1125 15.7917 15.625 15.275 16.025C15.1083 16.125 14.9375 16.1292 14.7625 16.0375C14.5875 15.9458 14.5 15.8 14.5 15.6V9.35C14.5 9.15 14.5875 9.00417 14.7625 8.9125C14.9375 8.82083 15.1083 8.825 15.275 8.925C15.7917 9.34167 16.2083 9.86667 16.525 10.5C16.8417 11.1333 17 11.8 17 12.5ZM10.5 9.35L8.35 11.5H5.5V13.5H8.35L10.5 15.65V9.35Z" fill="white"/>
</g>
</svg>
