<svg width="9" height="9" viewBox="0 0 9 9" fill="none" xmlns="http://www.w3.org/2000/svg">
<path d="M4.26707 0.162174C4.34708 -0.054058 4.65292 -0.0540578 4.73293 0.162174L5.36603 1.87311C5.6679 2.6889 6.3111 3.3321 7.12689 3.63397L8.83783 4.26707C9.05406 4.34708 9.05406 4.65292 8.83783 4.73293L7.12689 5.36603C6.3111 5.6679 5.6679 6.3111 5.36603 7.12689L4.73293 8.83783C4.65292 9.05406 4.34708 9.05406 4.26707 8.83783L3.63397 7.12689C3.3321 6.3111 2.6889 5.6679 1.87311 5.36603L0.162174 4.73293C-0.054058 4.65292 -0.0540578 4.34708 0.162174 4.26707L1.87311 3.63397C2.6889 3.3321 3.3321 2.6889 3.63397 1.87311L4.26707 0.162174Z" fill="white"/>
</svg>
